# xmcd
#
# Track frame offsets: 
#        150
#        19684
#        39069
#        58811
#        75079
#        94902
#        111928
#        127098
#        145673
#        162124
#        181632
#        199866
#
# Disc length: 2902 seconds
#
# Revision: 1
# Processed by: cddbd v1.5.2PL0 Copyright (c) Steve Scherf et al.
# Submitted via: ExactAudioCopyFreeDBPlugin 1.0
#
DISCID=8f0b540c
DTITLE=Smokin' Joe Kubek and Bnois King - Road Dog's Life
DYEAR=2013
DGENRE=Blues
TTITLE0=Big Money Sonny
TTITLE1=Come on In
TTITLE2=Nobody But You
TTITLE3=Road Dog's Life
TTITLE4=K9 Blues
TTITLE5=That Look on Your Face
TTITLE6=Face to Face
TTITLE7=Don't Bother Me
TTITLE8=I Ain't Greasin'
TTITLE9=Talkin' 'Bout Bad Luck
TTITLE10=Play with Fire
TTITLE11=That Don't Work No More
EXTD=
EXTT0=
EXTT1=
EXTT2=
EXTT3=
EXTT4=
EXTT5=
EXTT6=
EXTT7=
EXTT8=
EXTT9=
EXTT10=
EXTT11=
PLAYORDER=
